<?xml version="1.0" standalone="no"?>
<!DOCTYPE svg PUBLIC "-//W3C//DTD SVG 20010904//EN"
 "http://www.w3.org/TR/2001/REC-SVG-20010904/DTD/svg10.dtd">
<svg version="1.0" xmlns="http://www.w3.org/2000/svg"
 width="630.000000pt" height="419.000000pt" viewBox="0 0 630.000000 419.000000"
 preserveAspectRatio="xMidYMid meet">
<metadata>
Created by potrace 1.15, written by Peter Selinger 2001-2017
</metadata>
<g transform="translate(0.000000,419.000000) scale(0.100000,-0.100000)"
fill="#000000" stroke="none">
<path d="M2946 3873 l-49 -4 7 -122 c8 -141 17 -216 49 -381 l22 -119 50 -23
c28 -12 53 -20 58 -17 13 8 7 117 -13 206 -17 77 -26 159 -46 405 -4 39 -10
61 -17 60 -7 -1 -34 -3 -61 -5z"/>
<path d="M4666 3743 c-10 -21 -61 -114 -114 -208 -109 -195 -167 -315 -177
-367 l-7 -35 57 -8 c58 -7 74 0 75 33 0 18 66 147 174 341 51 91 100 181 110
198 l16 33 -50 25 c-27 14 -53 25 -58 25 -4 0 -16 -17 -26 -37z"/>
<path d="M1775 3615 c-22 -14 -44 -26 -49 -28 -5 -2 47 -98 115 -215 68 -116
143 -247 167 -289 23 -43 51 -89 62 -103 l19 -25 44 43 44 44 -29 46 c-16 26
-56 95 -88 153 -86 157 -231 399 -238 399 -4 0 -25 -12 -47 -25z"/>
<path d="M5896 3089 c-145 -93 -281 -195 -331 -248 l-29 -31 41 -42 41 -41 73
63 c41 34 142 106 224 161 83 54 158 104 169 111 18 13 17 16 -14 66 -17 29
-32 52 -33 51 -1 0 -64 -41 -141 -90z"/>
<path d="M3319 2965 c-14 -7 -57 -56 -96 -107 -103 -134 -125 -152 -213 -177
-257 -71 -551 -234 -847 -469 -109 -87 -147 -109 -229 -131 -54 -14 -103 -48
-131 -90 -18 -27 -23 -48 -23 -100 0 -80 49 -492 61 -505 4 -5 81 0 181 13
172 21 173 21 198 53 96 121 158 170 250 199 67 20 67 20 45 188 -19 145 -30
168 -112 239 l-56 49 64 53 c71 59 190 138 289 193 138 75 399 162 570 191
l36 6 28 -230 c16 -127 26 -233 24 -235 -2 -2 -170 -25 -373 -51 -204 -25
-372 -47 -373 -49 -2 -2 8 -67 23 -145 33 -170 38 -177 193 -281 94 -63 109
-70 141 -65 20 3 166 22 325 41 159 20 291 36 292 38 1 1 -26 226 -60 499
l-62 496 29 6 c87 17 309 -1 486 -41 235 -52 580 -178 614 -225 20 -27 20 -28
2 -48 -10 -11 -34 -24 -54 -30 -20 -5 -225 -32 -456 -61 -231 -28 -422 -53
-424 -55 -4 -4 59 -517 64 -522 7 -8 962 117 987 128 15 7 47 39 72 71 89 114
197 171 326 171 96 0 165 -26 266 -98 45 -33 86 -54 102 -54 15 0 148 14 296
32 l268 32 -5 62 c-9 117 -104 246 -222 300 -60 28 -342 85 -555 114 -332 44
-443 73 -720 185 -365 148 -659 215 -946 215 -149 0 -150 1 -164 121 -6 46
-10 85 -10 87 0 8 -80 -1 -101 -13z m2508 -821 c20 -16 42 -39 50 -50 13 -20
11 -21 -172 -43 -102 -13 -195 -21 -207 -18 -37 10 -108 67 -108 87 0 15 11
20 68 25 37 4 103 13 147 20 121 20 178 14 222 -21z m-1482 -96 c4 -40 9 -76
11 -79 2 -3 35 -1 74 4 39 5 73 7 75 5 2 -1 6 -38 10 -80 l7 -76 -48 -7 c-27
-3 -61 -9 -75 -11 -26 -5 -27 -3 -34 48 -13 109 -12 107 -53 102 -111 -15
-104 -11 -98 -55 3 -21 9 -57 12 -78 l5 -39 -63 -7 c-35 -3 -71 -9 -80 -11
-14 -4 -18 6 -24 64 -3 38 -9 75 -13 81 -8 12 -118 5 -140 -9 -8 -5 -9 -26 -1
-80 6 -40 9 -74 8 -76 -2 -1 -35 -5 -74 -9 l-71 -7 -7 32 c-3 18 -6 54 -6 80
l0 48 63 9 62 8 1 80 0 80 50 7 c107 14 102 17 110 -62 4 -39 11 -73 16 -76 5
-3 37 -2 72 1 l64 7 -1 82 -2 81 45 6 c104 14 97 18 105 -63z m-2342 -172 c13
-18 2 -243 -13 -261 -7 -9 -29 -15 -54 -15 l-42 0 -13 108 c-6 59 -15 124 -18
144 l-5 37 48 3 c57 5 86 0 97 -16z"/>
<path d="M741 2588 c-12 -28 -18 -55 -14 -59 5 -5 107 -42 228 -82 121 -41
263 -91 315 -112 95 -36 218 -70 227 -61 2 2 8 29 12 60 8 55 7 57 -18 62 -32
6 -117 35 -456 153 -143 50 -263 91 -266 91 -4 0 -16 -23 -28 -52z"/>
<path d="M5059 1860 c-99 -17 -201 -95 -250 -190 -34 -67 -38 -195 -10 -271
29 -75 85 -138 163 -180 58 -32 69 -34 153 -34 76 0 99 4 145 26 77 36 121 78
160 151 45 85 53 193 20 280 -26 70 -97 151 -159 183 -39 19 -150 48 -170 44
-3 -1 -27 -5 -52 -9z m157 -192 c110 -75 100 -243 -18 -304 -43 -22 -129 -18
-169 9 -98 66 -114 192 -34 272 20 19 50 39 68 44 46 14 116 5 153 -21z"/>
<path d="M5049 1591 c-79 -79 8 -204 112 -161 40 17 59 46 59 93 0 55 -43 97
-100 97 -33 0 -48 -6 -71 -29z"/>
<path d="M5766 1729 c-126 -16 -231 -31 -233 -33 -2 -1 4 -69 14 -149 l17
-146 36 -6 c67 -11 213 21 304 67 56 28 136 106 157 153 19 40 24 99 13 129
-8 21 -30 20 -308 -15z"/>
<path d="M3811 1490 c-431 -54 -789 -101 -795 -103 -10 -4 -8 -38 6 -153 10
-82 21 -150 23 -152 4 -5 1656 197 1666 203 3 2 -3 66 -12 142 -10 76 -18 144
-19 151 0 8 -15 12 -42 11 -24 -1 -396 -45 -827 -99z"/>
<path d="M2514 1536 c-70 -17 -136 -58 -177 -109 -47 -57 -63 -91 -77 -163
-30 -150 51 -305 193 -370 53 -25 74 -29 147 -29 105 1 174 31 244 105 68 73
89 127 90 230 1 74 -3 93 -28 147 -68 147 -237 229 -392 189z m143 -167 c34
-13 80 -55 99 -91 37 -72 3 -180 -72 -224 -127 -74 -287 36 -260 180 20 104
136 172 233 135z"/>
<path d="M2552 1295 c-44 -19 -67 -73 -52 -120 16 -49 45 -70 97 -70 38 0 49
5 74 33 74 83 -16 203 -119 157z"/>
<path d="M1978 1261 c-64 -9 -119 -18 -121 -21 -9 -11 12 -150 27 -179 26 -50
62 -62 188 -62 61 0 113 2 115 4 2 2 -4 66 -13 141 l-17 136 -31 -1 c-17 -1
-84 -9 -148 -18z"/>
<path d="M250 1086 c0 -4 13 -34 29 -69 87 -190 311 -384 631 -547 361 -183
786 -310 1170 -350 126 -13 397 -13 518 1 519 56 964 285 1244 641 106 135
108 150 7 52 -118 -113 -169 -155 -289 -234 -327 -214 -716 -322 -1170 -323
-278 0 -514 31 -820 108 -626 158 -1107 409 -1281 669 -21 32 -39 55 -39 52z"/>
<path d="M3670 908 c-153 -138 -402 -257 -675 -321 -422 -99 -1027 -103 -1192
-7 -43 25 -42 10 2 -29 75 -65 202 -114 380 -147 79 -15 150 -18 340 -18 222
0 249 2 366 27 212 45 374 108 524 204 88 57 241 211 278 281 16 28 27 52 25
52 -2 -1 -23 -19 -48 -42z"/>
</g>
</svg>
